<?xml version="1.0" encoding="utf-8"?>
<!-- Generator: Adobe Illustrator 18.1.1, SVG Export Plug-In . SVG Version: 6.00 Build 0)  -->
<svg version="1.1" id="Layer_1" xmlns="http://www.w3.org/2000/svg" xmlns:xlink="http://www.w3.org/1999/xlink" x="0px" y="0px"
	 viewBox="0 0 741.155 617.287" style="enable-background:new 0 0 741.155 617.287;" xml:space="preserve">
<style type="text/css">
	.st0{fill:#010101;}
	.st1{fill:#6C6D6D;}
	.st2{display:none;fill:#6C6D6D;}
	.st3{fill:#B5B6B6;}
	.st4{fill:none;stroke:#010101;stroke-width:0.5025;stroke-linejoin:round;stroke-miterlimit:10;}
	.st5{fill:#69CCE2;}
	.st6{fill:#32BBA6;}
	.st7{font-family:'MyriadPro-Regular';}
	.st8{font-size:12;}
	.st9{fill:none;stroke:#CCCCCC;stroke-width:10;stroke-linecap:square;stroke-miterlimit:10;}
	.st10{fill:#CCCCCC;}
</style>
<symbol  id="dot" viewBox="-3.5 -3.5 7 7">
	<path class="st0" d="M3.5,0c0-1.933-1.567-3.5-3.5-3.5S-3.5-1.933-3.5,0S-1.933,3.5,0,3.5S3.5,1.933,3.5,0z"/>
</symbol>
<g id="worst">
	<rect x="284.056" y="584.051" class="st1" width="137.131" height="24.814"/>
	<rect x="284.056" y="543.508" class="st1" width="102.153" height="24.871"/>
	<rect x="284.056" y="502.965" class="st1" width="103.686" height="24.871"/>
	<rect x="284.056" y="462.422" class="st1" width="102.777" height="24.871"/>
	<rect x="284.056" y="421.936" class="st1" width="117.143" height="24.871"/>
	<rect x="284.056" y="381.392" class="st1" width="101.187" height="24.871"/>
	<rect x="284.056" y="340.849" class="st1" width="98.746" height="24.871"/>
	<rect x="284.056" y="300.363" class="st1" width="102.266" height="24.814"/>
	<rect x="284.056" y="259.82" class="st1" width="89.206" height="24.871"/>
	<rect x="284.056" y="219.277" class="st1" width="81.597" height="24.871"/>
	<rect x="284.056" y="178.734" class="st1" width="64.676" height="24.871"/>
	<rect x="284.056" y="138.247" class="st1" width="46.732" height="24.871"/>
	<rect x="284.056" y="97.704" class="st1" width="25.552" height="24.871"/>
	<rect x="269.69" y="57.161" class="st2" width="14.366" height="24.871"/>
</g>
<g id="worse_1_">
	<rect x="421.188" y="584.051" class="st3" width="33.445" height="24.814"/>
	<rect x="386.209" y="543.508" class="st3" width="47.414" height="24.871"/>
	<rect x="387.742" y="502.965" class="st3" width="44.915" height="24.871"/>
	<rect x="386.834" y="462.422" class="st3" width="46.165" height="24.871"/>
	<rect x="401.2" y="421.936" class="st3" width="40.941" height="24.871"/>
	<rect x="385.244" y="381.392" class="st3" width="49.799" height="24.871"/>
	<rect x="382.802" y="340.849" class="st3" width="50.139" height="24.871"/>
	<rect x="386.323" y="300.363" class="st3" width="51.559" height="24.814"/>
	<rect x="373.263" y="259.82" class="st3" width="46.789" height="24.871"/>
	<rect x="365.654" y="219.277" class="st3" width="62.064" height="24.871"/>
	<rect x="348.732" y="178.734" class="st3" width="54.625" height="24.871"/>
	<rect x="330.789" y="138.247" class="st3" width="67.231" height="24.871"/>
	<rect x="309.609" y="97.704" class="st3" width="79.496" height="24.871"/>
	<rect x="283.946" y="57.161" class="st3" width="83.866" height="24.871"/>
</g>
<g id="normal">
	<rect x="454.633" y="584.051" class="st4" width="104.367" height="24.814"/>
	<rect x="433.623" y="543.508" class="st4" width="142.185" height="24.871"/>
	<rect x="432.658" y="502.965" class="st4" width="141.219" height="24.871"/>
	<rect x="432.998" y="462.422" class="st4" width="144.967" height="24.871"/>
	<rect x="442.14" y="421.936" class="st4" width="122.708" height="24.871"/>
	<rect x="435.043" y="381.392" class="st4" width="141.163" height="24.871"/>
	<rect x="432.942" y="340.849" class="st4" width="142.071" height="24.871"/>
	<rect x="437.882" y="300.363" class="st4" width="137.358" height="24.814"/>
	<rect x="420.052" y="259.82" class="st4" width="159.163" height="24.871"/>
	<rect x="427.718" y="219.277" class="st4" width="155.075" height="24.871"/>
	<rect x="403.358" y="178.734" class="st4" width="196.526" height="24.871"/>
	<rect x="398.02" y="138.247" class="st4" width="201.637" height="24.871"/>
	<rect x="389.105" y="97.704" class="st4" width="222.59" height="24.871"/>
	<rect x="367.811" y="57.161" class="st4" width="228.836" height="24.871"/>
</g>
<g id="better">
	<rect x="559" y="584.051" class="st5" width="25.041" height="24.814"/>
	<rect x="575.808" y="543.508" class="st5" width="36.852" height="24.871"/>
	<rect x="573.877" y="502.965" class="st5" width="38.499" height="24.871"/>
	<rect x="577.966" y="462.422" class="st5" width="32.991" height="24.871"/>
	<rect x="564.849" y="421.936" class="st5" width="34.07" height="24.871"/>
	<rect x="576.205" y="381.392" class="st5" width="33.218" height="24.871"/>
	<rect x="575.013" y="340.849" class="st5" width="33.445" height="24.871"/>
	<rect x="575.24" y="300.363" class="st5" width="25.78" height="24.814"/>
	<rect x="579.215" y="259.82" class="st5" width="37.42" height="24.871"/>
	<rect x="582.792" y="219.277" class="st5" width="41.395" height="24.871"/>
	<rect x="599.884" y="178.734" class="st5" width="43.666" height="24.871"/>
	<rect x="599.657" y="138.247" class="st5" width="40.316" height="24.871"/>
	<rect x="611.695" y="97.704" class="st5" width="47.698" height="24.871"/>
	<rect x="596.647" y="57.161" class="st5" width="32.707" height="24.871"/>
</g>
<g id="best">
	<rect x="584.041" y="584.051" class="st6" width="147.846" height="24.814"/>
	<rect x="612.66" y="543.508" class="st6" width="119.227" height="24.871"/>
	<rect x="612.376" y="502.965" class="st6" width="119.511" height="24.871"/>
	<rect x="610.956" y="462.422" class="st6" width="120.931" height="24.871"/>
	<rect x="598.918" y="421.936" class="st6" width="132.969" height="24.871"/>
	<rect x="609.423" y="381.392" class="st6" width="122.464" height="24.871"/>
	<rect x="608.458" y="340.849" class="st6" width="123.429" height="24.871"/>
	<rect x="601.02" y="300.363" class="st6" width="130.868" height="24.814"/>
	<rect x="616.635" y="259.82" class="st6" width="115.253" height="24.871"/>
	<rect x="624.187" y="219.277" class="st6" width="107.7" height="24.871"/>
	<rect x="643.55" y="178.734" class="st6" width="88.338" height="24.871"/>
	<rect x="639.973" y="138.247" class="st6" width="91.915" height="24.871"/>
	<rect x="659.393" y="97.704" class="st6" width="72.495" height="24.871"/>
	<rect x="629.354" y="57.161" class="st6" width="102.533" height="24.871"/>
</g>
<g id="dots">
	
		<use xlink:href="#dot"  width="7" height="7" x="-3.5" y="-3.5" transform="matrix(1.4125 0 0 -1.4125 498.648 69.607)" style="overflow:visible;"/>
	
		<use xlink:href="#dot"  width="7" height="7" x="-3.5" y="-3.5" transform="matrix(1.4125 0 0 -1.4125 563.9768 110.2168)" style="overflow:visible;"/>
	
		<use xlink:href="#dot"  width="7" height="7" x="-3.5" y="-3.5" transform="matrix(1.4125 0 0 -1.4125 545.9672 150.8266)" style="overflow:visible;"/>
	
		<use xlink:href="#dot"  width="7" height="7" x="-3.5" y="-3.5" transform="matrix(1.4125 0 0 -1.4125 556.2079 191.0833)" style="overflow:visible;"/>
	
		<use xlink:href="#dot"  width="7" height="7" x="-3.5" y="-3.5" transform="matrix(1.4125 0 0 -1.4125 448.5038 232.0462)" style="overflow:visible;"/>
	
		<use xlink:href="#dot"  width="7" height="7" x="-3.5" y="-3.5" transform="matrix(1.4125 0 0 -1.4125 448.1506 272.3028)" style="overflow:visible;"/>
	
		<use xlink:href="#dot"  width="7" height="7" x="-3.5" y="-3.5" transform="matrix(1.4125 0 0 -1.4125 472.5165 312.9126)" style="overflow:visible;"/>
	
		<use xlink:href="#dot"  width="7" height="7" x="-3.5" y="-3.5" transform="matrix(1.4125 0 0 -1.4125 566.8018 353.5224)" style="overflow:visible;"/>
	
		<use xlink:href="#dot"  width="7" height="7" x="-3.5" y="-3.5" transform="matrix(1.4125 0 0 -1.4125 410.3659 393.7791)" style="overflow:visible;"/>
	
		<use xlink:href="#dot"  width="7" height="7" x="-3.5" y="-3.5" transform="matrix(1.4125 0 0 -1.4125 537.8453 434.3889)" style="overflow:visible;"/>
	
		<use xlink:href="#dot"  width="7" height="7" x="-3.5" y="-3.5" transform="matrix(1.4125 0 0 -1.4125 446.385 474.9987)" style="overflow:visible;"/>
	
		<use xlink:href="#dot"  width="7" height="7" x="-3.5" y="-3.5" transform="matrix(1.4125 0 0 -1.4125 465.1008 515.6085)" style="overflow:visible;"/>
	
		<use xlink:href="#dot"  width="7" height="7" x="-3.5" y="-3.5" transform="matrix(1.4125 0 0 -1.4125 539.2578 556.2183)" style="overflow:visible;"/>
	
		<use xlink:href="#dot"  width="7" height="7" x="-3.5" y="-3.5" transform="matrix(1.4125 0 0 -1.4125 538.1984 596.828)" style="overflow:visible;"/>
	<text transform="matrix(1 0 0 1 118.9699 73.1186)" class="st7 st8">Belfast, RoyalVictoria Hospital</text>
	<text transform="matrix(1 0 0 1 128.234 113.6617)" class="st7 st8">London, Harley Street Clinic</text>
	<text transform="matrix(1 0 0 1 127.9215 154.2048)" class="st7 st8">Leicester, Glenfield Hospital</text>
	<text transform="matrix(1 0 0 1 121.8854 194.6912)" class="st7 st8">Newcastle, Freeman Hospital</text>
	<text transform="matrix(1 0 0 1 79.4669 235.2343)" class="st7 st8">Dublin, Our Lady&apos;s Children&apos;s Hospital</text>
	<text transform="matrix(1 0 0 1 63.0387 276.3334)" class="st7 st8">Glasgow, Royal Hospital for Sick Children</text>
</g>
<text transform="matrix(1 0 0 1 99.6626 316.292)" class="st7 st8">Bristol Royal Hospital for Children</text>
<text transform="matrix(1 0 0 1 42.7583 356.8069)" class="st7 st8">Southampton, Wessex Cardiothoracic Centre</text>
<text transform="matrix(1 0 0 1 148.1894 397.3501)" class="st7 st8">Leeds General Infirmary</text>
<text transform="matrix(1 0 0 1 97.742 437.8927)" class="st7 st8">London, Royal Brompton Hospital</text>
<text transform="matrix(1 0 0 1 90.7229 478.3795)" class="st7 st8">London, Evelina Children&apos;s Hospital</text>
<text transform="matrix(1 0 0 1 121.6701 518.923)" class="st7 st8">Liverpool, Alder Hey Hospital</text>
<text transform="matrix(1 0 0 1 108.5779 559.4655)" class="st7 st8">Birmingham Children&apos;s Hospital</text>
<text transform="matrix(1 0 0 1 12.3875 599.9808)" class="st7 st8">London, Great Ormond Street Hospital for Children</text>
<g>
	<g>
		<line class="st9" x1="371.333" y1="38" x2="573.245" y2="38"/>
		<g>
			<polygon class="st10" points="562.854,51.702 568.675,38 562.854,24.298 595.333,38 			"/>
		</g>
	</g>
</g>
<text transform="matrix(1 0 0 1 600.2711 41.3334)" class="st7 st8">Better</text>
</svg>
