<?xml version="1.0" encoding="utf-8"?>
<!-- Generator: Adobe Illustrator 18.1.1, SVG Export Plug-In . SVG Version: 6.00 Build 0)  -->
<svg version="1.1" id="Layer_1" xmlns="http://www.w3.org/2000/svg" xmlns:xlink="http://www.w3.org/1999/xlink" x="0px" y="0px"
	 viewBox="0 0 697.488 549" style="enable-background:new 0 0 697.488 549;" xml:space="preserve">
<style type="text/css">
	.st0{fill:#010101;}
	.st1{fill:#6C6D6D;}
	.st2{display:none;fill:#6C6D6D;}
	.st3{fill:#B5B6B6;}
	.st4{fill:none;stroke:#010101;stroke-width:0.5025;stroke-linejoin:round;stroke-miterlimit:10;}
	.st5{fill:#69CCE2;}
	.st6{fill:#32BBA6;}
	.st7{font-family:'MyriadPro-Regular';}
	.st8{font-size:12;}
	.st9{fill:none;stroke:#CCCCCC;stroke-width:10;stroke-linecap:square;stroke-miterlimit:10;}
	.st10{fill:#CCCCCC;}
</style>
<symbol  id="dot" viewBox="-3.5 -3.5 7 7">
	<path class="st0" d="M3.5,0c0-1.933-1.567-3.5-3.5-3.5S-3.5-1.933-3.5,0S-1.933,3.5,0,3.5S3.5,1.933,3.5,0z"/>
</symbol>
<g id="normal">
	<rect x="660.138" y="204.908" class="st4" width="24.814" height="104.367"/>
	<rect x="619.595" y="188.1" class="st4" width="24.871" height="142.185"/>
	<rect x="579.051" y="190.03" class="st4" width="24.871" height="141.219"/>
	<rect x="538.508" y="185.942" class="st4" width="24.871" height="144.967"/>
	<rect x="498.022" y="199.059" class="st4" width="24.871" height="122.708"/>
	<rect x="457.479" y="187.702" class="st4" width="24.871" height="141.163"/>
	<rect x="416.936" y="188.895" class="st4" width="24.871" height="142.071"/>
	<rect x="376.449" y="188.668" class="st4" width="24.814" height="137.358"/>
	<rect x="335.906" y="184.693" class="st4" width="24.871" height="159.163"/>
	<rect x="295.363" y="181.116" class="st4" width="24.871" height="155.075"/>
	<rect x="254.82" y="164.024" class="st4" width="24.871" height="196.526"/>
	<rect x="214.334" y="164.251" class="st4" width="24.871" height="201.637"/>
	<rect x="173.791" y="152.213" class="st4" width="24.871" height="222.59"/>
	<rect x="133.248" y="167.26" class="st4" width="24.871" height="228.836"/>
</g>
<g id="better">
	<rect x="660.138" y="179.866" class="st5" width="24.814" height="25.041"/>
	<rect x="619.595" y="151.248" class="st5" width="24.871" height="36.852"/>
	<rect x="579.051" y="151.532" class="st5" width="24.871" height="38.499"/>
	<rect x="538.508" y="152.951" class="st5" width="24.871" height="32.991"/>
	<rect x="498.022" y="164.989" class="st5" width="24.871" height="34.07"/>
	<rect x="457.479" y="154.484" class="st5" width="24.871" height="33.218"/>
	<rect x="416.936" y="155.45" class="st5" width="24.871" height="33.445"/>
	<rect x="376.449" y="162.888" class="st5" width="24.814" height="25.78"/>
	<rect x="335.906" y="147.273" class="st5" width="24.871" height="37.42"/>
	<rect x="295.363" y="139.721" class="st5" width="24.871" height="41.395"/>
	<rect x="254.82" y="120.358" class="st5" width="24.871" height="43.666"/>
	<rect x="214.334" y="123.935" class="st5" width="24.871" height="40.316"/>
	<rect x="173.791" y="104.515" class="st5" width="24.871" height="47.698"/>
	<rect x="133.248" y="134.553" class="st5" width="24.871" height="32.707"/>
</g>
<g id="best">
	<rect x="660.138" y="32.02" class="st6" width="24.814" height="147.846"/>
	<rect x="619.595" y="32.02" class="st6" width="24.871" height="119.227"/>
	<rect x="579.051" y="32.02" class="st6" width="24.871" height="119.511"/>
	<rect x="538.508" y="32.02" class="st6" width="24.871" height="120.931"/>
	<rect x="498.022" y="32.02" class="st6" width="24.871" height="132.969"/>
	<rect x="457.479" y="32.02" class="st6" width="24.871" height="122.464"/>
	<rect x="416.936" y="32.02" class="st6" width="24.871" height="123.429"/>
	<rect x="376.449" y="32.02" class="st6" width="24.814" height="130.868"/>
	<rect x="335.906" y="32.02" class="st6" width="24.871" height="115.253"/>
	<rect x="295.363" y="32.02" class="st6" width="24.871" height="107.7"/>
	<rect x="254.82" y="32.02" class="st6" width="24.871" height="88.338"/>
	<rect x="214.334" y="32.02" class="st6" width="24.871" height="91.915"/>
	<rect x="173.791" y="32.02" class="st6" width="24.871" height="72.495"/>
	<rect x="133.248" y="32.02" class="st6" width="24.871" height="102.533"/>
</g>
<g id="dots">
	
		<use xlink:href="#dot"  width="7" height="7" x="-3.5" y="-3.5" transform="matrix(6.341708e-11 -1.4125 -1.4125 -6.341708e-11 145.6935 265.2596)" style="overflow:visible;"/>
	
		<use xlink:href="#dot"  width="7" height="7" x="-3.5" y="-3.5" transform="matrix(6.341708e-11 -1.4125 -1.4125 -6.341708e-11 186.3033 199.9308)" style="overflow:visible;"/>
	
		<use xlink:href="#dot"  width="7" height="7" x="-3.5" y="-3.5" transform="matrix(6.341708e-11 -1.4125 -1.4125 -6.341708e-11 226.913 217.9404)" style="overflow:visible;"/>
	
		<use xlink:href="#dot"  width="7" height="7" x="-3.5" y="-3.5" transform="matrix(6.341708e-11 -1.4125 -1.4125 -6.341708e-11 267.1697 207.6997)" style="overflow:visible;"/>
	
		<use xlink:href="#dot"  width="7" height="7" x="-3.5" y="-3.5" transform="matrix(6.341708e-11 -1.4125 -1.4125 -6.341708e-11 308.1326 315.4039)" style="overflow:visible;"/>
	
		<use xlink:href="#dot"  width="7" height="7" x="-3.5" y="-3.5" transform="matrix(6.341708e-11 -1.4125 -1.4125 -6.341708e-11 348.3893 315.757)" style="overflow:visible;"/>
	
		<use xlink:href="#dot"  width="7" height="7" x="-3.5" y="-3.5" transform="matrix(6.341708e-11 -1.4125 -1.4125 -6.341708e-11 388.9991 291.3911)" style="overflow:visible;"/>
	
		<use xlink:href="#dot"  width="7" height="7" x="-3.5" y="-3.5" transform="matrix(6.341708e-11 -1.4125 -1.4125 -6.341708e-11 429.6089 197.1058)" style="overflow:visible;"/>
	
		<use xlink:href="#dot"  width="7" height="7" x="-3.5" y="-3.5" transform="matrix(6.341708e-11 -1.4125 -1.4125 -6.341708e-11 469.8655 353.5418)" style="overflow:visible;"/>
	
		<use xlink:href="#dot"  width="7" height="7" x="-3.5" y="-3.5" transform="matrix(6.341708e-11 -1.4125 -1.4125 -6.341708e-11 510.4753 226.0623)" style="overflow:visible;"/>
	
		<use xlink:href="#dot"  width="7" height="7" x="-3.5" y="-3.5" transform="matrix(6.341708e-11 -1.4125 -1.4125 -6.341708e-11 551.0851 317.5226)" style="overflow:visible;"/>
	
		<use xlink:href="#dot"  width="7" height="7" x="-3.5" y="-3.5" transform="matrix(6.341708e-11 -1.4125 -1.4125 -6.341708e-11 591.6949 298.8069)" style="overflow:visible;"/>
	
		<use xlink:href="#dot"  width="7" height="7" x="-3.5" y="-3.5" transform="matrix(6.341708e-11 -1.4125 -1.4125 -6.341708e-11 632.3047 224.6498)" style="overflow:visible;"/>
	
		<use xlink:href="#dot"  width="7" height="7" x="-3.5" y="-3.5" transform="matrix(6.341708e-11 -1.4125 -1.4125 -6.341708e-11 672.9145 225.7092)" style="overflow:visible;"/>
	<text transform="matrix(1 0 0 1 133.8384 507.5952)" class="st7 st8">RVB</text>
	<text transform="matrix(1 0 0 1 174.0346 507.5952)" class="st7 st8">HSC</text>
	<text transform="matrix(1 0 0 1 215.1667 507.5952)" class="st7 st8">GRL</text>
	<text transform="matrix(1 0 0 1 256.7186 507.5952)" class="st7 st8">FRE</text>
	<text transform="matrix(1 0 0 1 296.6146 507.5952)" class="st7 st8">OLS</text>
	<text transform="matrix(1 0 0 1 337.1585 507.5952)" class="st7 st8">RHS</text>
	<text transform="matrix(1 0 0 1 378.0146 507.5952)" class="st7 st8">BRC</text>
	<text transform="matrix(1 0 0 1 417.9465 507.5952)" class="st7 st8">SGH</text>
	<text transform="matrix(1 0 0 1 461.268 507.5952)" class="st7 st8">LGI</text>
	<text transform="matrix(1 0 0 1 499.0165 507.5952)" class="st7 st8">NHB</text>
	<text transform="matrix(1 0 0 1 539.8424 507.5952)" class="st7 st8">GUY</text>
	<text transform="matrix(1 0 0 1 580.5001 507.5952)" class="st7 st8">ACH</text>
	<text transform="matrix(1 0 0 1 621.6384 507.5952)" class="st7 st8">BCH</text>
	<text transform="matrix(1 0 0 1 662.0322 507.5952)" class="st7 st8">GOS</text>
</g>
<g id="worst_1_">
	<rect x="660.138" y="342.72" class="st1" width="24.814" height="137.131"/>
	<rect x="619.595" y="377.698" class="st1" width="24.871" height="102.153"/>
	<rect x="579.051" y="376.165" class="st1" width="24.871" height="103.686"/>
	<rect x="538.508" y="377.074" class="st1" width="24.871" height="102.777"/>
	<rect x="498.022" y="362.708" class="st1" width="24.871" height="117.143"/>
	<rect x="457.479" y="378.664" class="st1" width="24.871" height="101.187"/>
	<rect x="416.936" y="381.105" class="st1" width="24.871" height="98.746"/>
	<rect x="376.449" y="377.585" class="st1" width="24.814" height="102.266"/>
	<rect x="335.906" y="390.645" class="st1" width="24.871" height="89.206"/>
	<rect x="295.363" y="398.254" class="st1" width="24.871" height="81.597"/>
	<rect x="254.82" y="415.175" class="st1" width="24.871" height="64.676"/>
	<rect x="214.334" y="433.119" class="st1" width="24.871" height="46.732"/>
	<rect x="173.791" y="454.299" class="st1" width="24.871" height="25.552"/>
	<rect x="226.024" y="57.161" class="st2" width="14.366" height="24.871"/>
</g>
<g id="worse_2_">
	<rect x="660.138" y="309.275" class="st3" width="24.814" height="33.445"/>
	<rect x="619.595" y="330.285" class="st3" width="24.871" height="47.414"/>
	<rect x="579.051" y="331.25" class="st3" width="24.871" height="44.915"/>
	<rect x="538.508" y="330.909" class="st3" width="24.871" height="46.165"/>
	<rect x="498.022" y="321.767" class="st3" width="24.871" height="40.941"/>
	<rect x="457.479" y="328.865" class="st3" width="24.871" height="49.799"/>
	<rect x="416.936" y="330.966" class="st3" width="24.871" height="50.139"/>
	<rect x="376.449" y="326.026" class="st3" width="24.814" height="51.559"/>
	<rect x="335.906" y="343.856" class="st3" width="24.871" height="46.789"/>
	<rect x="295.363" y="336.19" class="st3" width="24.871" height="62.064"/>
	<rect x="254.82" y="360.55" class="st3" width="24.871" height="54.625"/>
	<rect x="214.334" y="365.888" class="st3" width="24.871" height="67.231"/>
	<rect x="173.791" y="374.802" class="st3" width="24.871" height="79.496"/>
	<rect x="133.248" y="396.096" class="st3" width="24.871" height="83.866"/>
</g>
<g>
	<g>
		<line class="st9" x1="114.086" y1="392.574" x2="114.086" y2="190.662"/>
		<g>
			<polygon class="st10" points="127.788,201.054 114.086,195.233 100.385,201.054 114.086,168.574 			"/>
		</g>
	</g>
</g>
<text transform="matrix(1 0 0 1 95.6886 159.9504)" class="st7 st8">Better</text>
</svg>
